<svg width="132" height="25" viewBox="0 0 132 25" fill="none" xmlns="http://www.w3.org/2000/svg">
<g id="ikonki">
<path id="Vector" d="M10.6266 4.15104H13V0.176042C12.5905 0.121875 11.1823 0 9.54229 0C6.12032 0 3.77619 2.06979 3.77619 5.87396V9.375H0V13.8188H3.77619V25H8.40597V13.8198H12.0294L12.6046 9.37604H8.40488V6.31458C8.40597 5.03021 8.7656 4.15104 10.6266 4.15104Z" fill="#6D6D6D"/>
<path id="Vector_2" d="M57 2.95962C55.9216 3.46154 54.7724 3.79423 53.5744 3.95577C54.8069 3.175 55.7476 1.94808 56.1898 0.469231C55.0407 1.19615 53.7719 1.70962 52.4198 1.99615C51.3287 0.763462 49.7736 0 48.0771 0C44.7856 0 42.1357 2.83462 42.1357 6.30962C42.1357 6.80962 42.1756 7.29038 42.2734 7.74808C37.3308 7.49231 32.9572 4.97885 30.0191 1.15C29.5062 2.09423 29.2053 3.175 29.2053 4.33846C29.2053 6.52308 30.2656 8.45961 31.8461 9.58077C30.8909 9.56154 29.9539 9.26731 29.16 8.80385C29.16 8.82308 29.16 8.84808 29.16 8.87308C29.16 11.9385 31.2208 14.4846 33.9232 15.0712C33.4393 15.2115 32.9119 15.2788 32.3645 15.2788C31.9839 15.2788 31.5996 15.2558 31.2389 15.1712C32.0092 17.6692 34.1951 19.5058 36.7943 19.5654C34.7715 21.2442 32.2032 22.2558 29.4228 22.2558C28.9353 22.2558 28.4676 22.2327 28 22.1692C30.6336 23.9712 33.7547 25 37.1205 25C48.0607 25 54.042 15.3846 54.042 7.05C54.042 6.77115 54.0329 6.50192 54.0203 6.23462C55.2002 5.34615 56.1916 4.23654 57 2.95962Z" fill="#6D6D6D"/>
<path id="Vector_3" d="M82.3349 0C75.5869 0.00104168 72 4.39173 72 9.1793C72 11.3991 73.2216 14.169 75.1776 15.0471C75.7356 15.3023 75.6617 14.9908 76.1418 13.1262C76.1797 12.971 76.1602 12.8366 76.0371 12.6918C73.2411 9.40742 75.4915 2.65525 81.9359 2.65525C91.2625 2.65525 89.5199 15.7617 83.5585 15.7617C82.0221 15.7617 80.8774 14.5367 81.2394 13.021C81.6784 11.2158 82.538 9.27513 82.538 7.97407C82.538 4.69486 77.7275 5.18132 77.7275 9.52618C77.7275 10.8689 78.1952 11.7752 78.1952 11.7752C78.1952 11.7752 76.6474 18.1253 76.3602 19.3117C75.874 21.3201 76.4259 24.5712 76.4741 24.8514C76.5038 25.0056 76.6741 25.0545 76.7695 24.9274C76.9223 24.7243 78.7932 22.0139 79.3173 20.0545C79.5081 19.3409 80.2907 16.445 80.2907 16.445C80.8066 17.3909 82.2939 18.1825 83.8786 18.1825C88.5926 18.1825 92 13.9742 92 8.75221C91.9836 3.74589 87.7649 0 82.3349 0Z" fill="#6D6D6D"/>
<g id="instagram">
<path id="Vector_4" d="M131.936 7.35009C131.878 6.02174 131.663 5.10851 131.355 4.31719C131.038 3.47721 130.549 2.72519 129.909 2.10003C129.284 1.46513 128.527 0.971796 127.696 0.65931C126.9 0.351594 125.992 0.136784 124.663 0.0782168C123.325 0.0146895 122.9 0 119.505 0C116.11 0 115.685 0.0146895 114.351 0.0732567C113.023 0.131824 112.109 0.346825 111.318 0.65435C110.478 0.971796 109.726 1.46017 109.1 2.10003C108.465 2.72519 107.972 3.48217 107.659 4.31242C107.352 5.10851 107.137 6.01678 107.078 7.34513C107.015 8.6834 107 9.10825 107 12.5025C107 15.8967 107.015 16.3216 107.073 17.6549C107.132 18.9832 107.347 19.8964 107.655 20.6878C107.972 21.5277 108.465 22.2798 109.1 22.9049C109.726 23.5398 110.483 24.0332 111.313 24.3456C112.109 24.6534 113.018 24.8682 114.347 24.9267C115.68 24.9855 116.105 25 119.5 25C122.895 25 123.32 24.9855 124.653 24.9267C125.982 24.8682 126.895 24.6534 127.687 24.3456C129.367 23.6961 130.696 22.3677 131.346 20.6878C131.653 19.8917 131.868 18.9832 131.927 17.6549C131.985 16.3216 132 15.8967 132 12.5025C132 9.10825 131.995 8.6834 131.936 7.35009ZM129.685 17.5572C129.631 18.7781 129.426 19.4374 129.255 19.877C128.835 20.9661 127.97 21.8305 126.881 22.2506C126.441 22.4215 125.777 22.6266 124.561 22.6802C123.242 22.739 122.846 22.7535 119.51 22.7535C116.174 22.7535 115.773 22.739 114.459 22.6802C113.238 22.6266 112.578 22.4215 112.139 22.2506C111.597 22.0503 111.103 21.7328 110.703 21.3177C110.287 20.9123 109.97 20.4239 109.77 19.8819C109.599 19.4424 109.394 18.7781 109.34 17.5622C109.281 16.2435 109.267 15.8479 109.267 12.5122C109.267 9.17655 109.281 8.77612 109.34 7.46246C109.394 6.24151 109.599 5.5822 109.77 5.14266C109.97 4.60048 110.287 4.10734 110.708 3.70671C111.113 3.29159 111.601 2.97415 112.144 2.77403C112.583 2.60309 113.248 2.39801 114.464 2.34421C115.783 2.28565 116.178 2.27096 119.515 2.27096C122.856 2.27096 123.251 2.28565 124.566 2.34421C125.787 2.39801 126.446 2.60309 126.886 2.77403C127.428 2.97415 127.921 3.29159 128.322 3.70671C128.737 4.11211 129.054 4.60048 129.255 5.14266C129.426 5.5822 129.631 6.24628 129.685 7.46246C129.743 8.78108 129.758 9.17655 129.758 12.5122C129.758 15.8479 129.743 16.2386 129.685 17.5572Z" fill="#6D6D6D"/>
<path id="Vector_5" d="M119.593 6.15674C116.04 6.15674 113.157 8.99787 113.157 12.5C113.157 16.0022 116.04 18.8433 119.593 18.8433C123.147 18.8433 126.03 16.0022 126.03 12.5C126.03 8.99787 123.147 6.15674 119.593 6.15674ZM119.593 16.6148C117.288 16.6148 115.418 14.7721 115.418 12.5C115.418 10.2279 117.288 8.38529 119.593 8.38529C121.899 8.38529 123.769 10.2279 123.769 12.5C123.769 14.7721 121.899 16.6148 119.593 16.6148Z" fill="#6D6D6D"/>
<path id="Vector_6" d="M127.709 5.78355C127.709 6.60778 127.041 7.27609 126.216 7.27609C125.392 7.27609 124.724 6.60778 124.724 5.78355C124.724 4.95913 125.392 4.29102 126.216 4.29102C127.041 4.29102 127.709 4.95913 127.709 5.78355Z" fill="#6D6D6D"/>
</g>
</g>
</svg>
